<?xml version="1.0" encoding="UTF-8" standalone="no"?>
<svg
   version="1.1"
   width="985"
   height="754"
   viewBox="-449 214 985 754"
   id="svg194"
   sodipodi:docname="introvert-nobg.svg"
   inkscape:version="1.2.2 (b0a8486541, 2022-12-01, custom)"
   xmlns:inkscape="http://www.inkscape.org/namespaces/inkscape"
   xmlns:sodipodi="http://sodipodi.sourceforge.net/DTD/sodipodi-0.dtd"
   xmlns="http://www.w3.org/2000/svg"
   xmlns:svg="http://www.w3.org/2000/svg">
  <defs
     id="defs198" />
  <sodipodi:namedview
     id="namedview196"
     pagecolor="#ffffff"
     bordercolor="#666666"
     borderopacity="1.0"
     inkscape:showpageshadow="2"
     inkscape:pageopacity="0.0"
     inkscape:pagecheckerboard="0"
     inkscape:deskcolor="#d1d1d1"
     showgrid="false"
     inkscape:zoom="0.547"
     inkscape:cx="809.87203"
     inkscape:cy="403.10786"
     inkscape:window-width="1600"
     inkscape:window-height="792"
     inkscape:window-x="0"
     inkscape:window-y="27"
     inkscape:window-maximized="1"
     inkscape:current-layer="svg194" />
  <g
     id="g524"
     transform="translate(-333.91778,-211.37525)">
    <g
       style="fill:#000000;fill-opacity:0.211765;stroke-linejoin:miter"
       id="g31">
      <path
         d="m 865.127,1152.7297 -4.45213,3.0219 q -31.65297,9.1322 -185.23247,14.6075 -154.6423,5.4709 -364.20375,4.4369 -199.99922,-1.4453 -319.909709,-8.458 -38.420651,-2.2668 -63.293751,-4.9399 l -20.90517,-2.7482 q -17.22775,-2.8365 -17.42145,-5.9202 5.22986,-9.4631 142.846728,-15.7468 137.616862,-6.2838 344.862552,-6.5226 207.24565,0.2388 344.86248,6.5226 137.61687,6.2837 142.84667,15.7468"
         id="path29" />
    </g>
    <g
       style="fill:#000000;fill-opacity:1;stroke-linejoin:miter"
       id="g35">
      <path
         d="m 322.8005,655.629 42.82136,1.5e-4 42.82122,2.5e-4 q -6e-5,54.0858 -6e-5,108.1717 -42.82129,2.3e-4 -85.64264,5e-4 1.2e-4,-54.0864 1.2e-4,-108.1726 z"
         id="path33" />
    </g>
    <g
       style="fill:#000000;fill-opacity:1;stroke-linejoin:miter"
       id="g39">
      <path
         d="m 179.91214,429.79013 186.33666,6.1e-4 186.33665,3.4e-4 q -1.5e-4,121.16986 -1.5e-4,242.33972 -186.33664,0 -372.6734,4e-4 1.2e-4,-121.1703 2.4e-4,-242.34107 z"
         id="path37" />
    </g>
    <g
       style="fill:#ffffff;fill-opacity:1;stroke-linejoin:miter"
       id="g43">
      <path
         d="m 189.36899,440.72745 176.87981,6.1e-4 176.87974,2.1e-4 q 0,109.57473 -4e-5,219.14963 -176.87984,0 -353.75977,1.5e-4 1.2e-4,-109.57519 2.6e-4,-219.1506 z"
         id="path41" />
    </g>
    <g
       style="fill:#000000;fill-opacity:1;stroke-linejoin:miter"
       id="g47">
      <path
         d="m 261.2683,751.95404 104.35343,6.6e-4 104.35349,6e-4 q 0,8.3028 0,16.60574 -104.35349,1.2e-4 -208.70702,3.6e-4 0,-8.3035 1e-4,-16.60736 z"
         id="path45" />
    </g>
    <g
       style="fill:#fce9ea;fill-opacity:1;stroke-linejoin:miter"
       id="g51">
      <path
         d="m 372.8231,677.12756 v 6.4e-4 -3e-4 c 0,0.4069 -0.32972,0.73654 -0.7365,0.73654 -0.4067,0 -0.73647,-0.32964 -0.73647,-0.73654 v 7e-4 -10e-4 c 0,-0.40666 0.32977,-0.73651 0.73647,-0.73651 0.40678,0 0.7365,0.32985 0.7365,0.73651 z"
         id="path49" />
    </g>
    <g
       style="fill:#000000;fill-opacity:1;stroke-linejoin:miter"
       id="g55">
      <path
         d="m 339.21487,1106.0033 8.18586,38.1754 q -21.62238,4.3292 -30.10636,4.4431 -7.78784,0.6076 -22.04324,-2.6617 l 4.09117,-55.1171 39.87257,15.1603"
         id="path53" />
    </g>
    <g
       style="fill:#000000;fill-opacity:1;stroke-linejoin:miter"
       id="g59">
      <path
         d="m 435.7096,1102.3672 5.29275,43.9738 q -15.74127,4.6544 -23.25355,4.4836 -7.888,0.2163 -22.01177,-4.1704 l 6.82449,-38.9902 33.14808,-5.2968"
         id="path57" />
    </g>
    <g
       style="fill:#406b8b;fill-opacity:0.996078;stroke-linejoin:miter"
       id="g63">
      <path
         d="m 346.3078,934.7824 -0.91687,89.7531 -0.91681,89.7533 -49.12759,0.715 q -9.9141,-89.963 -19.82823,-179.92604 l 70.7895,-0.29536"
         id="path61" />
    </g>
    <g
       style="fill:#406b8b;fill-opacity:0.996078;stroke-linejoin:miter"
       id="g67">
      <path
         d="m 391.38733,933.1292 2.12085,91.1541 2.12082,91.1542 q 25.42337,-0.146 50.84674,-0.292 10.4237,-92.8547 20.84746,-185.70946 l -75.93587,3.69316"
         id="path65" />
    </g>
    <g
       style="fill:#ffffff;fill-opacity:0.996078;stroke-linejoin:miter"
       id="g71">
      <path
         d="m 103.64176,769.62854 268.81689,4.6e-4 268.81685,5e-4 q 0,10.2208 0,20.4415 -268.81685,5e-4 -537.63374,9.6e-4 0,-10.22166 0,-20.44342"
         id="path69" />
    </g>
    <g
       style="fill:#ffbfaf;fill-opacity:0.996078;stroke-linejoin:miter"
       id="g75">
      <path
         d="m 243.42361,705.65704 v 5.6e-4 73.61065 q 24.70989,14.56891 49.41979,29.13775 -9.9606,-44.6651 -19.9212,-89.33026 l -29.49859,-13.4187"
         id="path73" />
    </g>
    <g
       style="fill:#ffbfaf;fill-opacity:0.996078;stroke-linejoin:miter"
       id="g79">
      <path
         d="m 493.742,691.0237 v 5e-4 73.6107 q -24.70986,14.56884 -49.41976,29.13774 9.96056,-44.66514 19.92114,-89.33024 L 493.742,691.0237"
         id="path77" />
    </g>
    <g
       style="fill:#ffffff;fill-opacity:0.996078;stroke-linejoin:miter"
       id="g83">
      <path
         d="m 163.08025,789.4035 11.36196,5e-4 11.36193,5e-4 q 0,179.6553 0,359.3106 -11.36193,5e-4 -22.72389,0 0,-179.6564 0,-359.3126"
         id="path81" />
    </g>
    <g
       style="fill:#ffffff;fill-opacity:0.996078;stroke-linejoin:miter"
       id="g87">
      <path
         d="m 577.78937,789.4038 11.36193,5e-4 11.362,5.5e-4 q 0,179.65515 0,359.31025 -11.362,5e-4 -22.72393,0 0,-179.6561 0,-359.3123"
         id="path85" />
    </g>
    <g
       style="fill:#222b32;fill-opacity:1;stroke-linejoin:miter"
       id="g91">
      <path
         d="m 470.83148,805.86694 14.21515,5.6e-4 14.21515,5e-4 q 0,70.11326 0,140.22654 -14.21515,4.9e-4 -28.4303,10e-4 0,-70.11434 0,-140.22866"
         id="path89" />
    </g>
    <g
       style="fill:#222b32;fill-opacity:1;stroke-linejoin:miter"
       id="g95">
      <path
         d="m 237.71545,804.1715 14.21512,5.6e-4 14.21515,4.9e-4 q 0,70.11325 0,140.22655 -14.21515,5e-4 -28.43027,10e-4 0,-70.11435 0,-140.22865"
         id="path93" />
    </g>
    <g
       style="fill:#000000;fill-opacity:1;stroke-linejoin:miter"
       id="g99">
      <path
         d="m 474.51144,1155.1599 -0.95291,2.0371 q -6.77443,6.1561 -39.6441,9.847 -33.09711,3.6879 -77.94813,2.9909 -42.80456,-0.9744 -68.4682,-5.7015 -8.22292,-1.5282 -13.54632,-3.3301 l -4.47424,-1.8525 q -3.68714,-1.9122 -3.72858,-3.9909 1.1193,-6.379 30.57257,-10.615 29.45322,-4.2359 73.80863,-4.3968 44.35541,0.1609 73.80864,4.3968 29.45332,4.236 30.57264,10.615"
         id="path97" />
    </g>
    <g
       style="fill:#000000;fill-opacity:0.996078;stroke-linejoin:miter"
       id="g103">
      <path
         d="m 485.8214,930.15686 -1.06755,6.56824 q -5.40027,12.3291 -17.456,19.60187 -10.06325,6.64666 -28.01483,12.57453 -34.73419,10.7922 -81.3396,9.4056 -48.50032,-2.2938 -78.05484,-16.89334 -2.40906,-0.68846 -9.51013,-5.33626 l -5.10425,-3.6897 q -4.69232,-3.70555 -7.73706,-7.4746 -6.08946,-7.5381 -5.58846,-15.33 1.62905,-20.19264 34.31887,-33.5291 33.90527,-14.01907 82.61343,-14.3019 45.68979,0.19024 80.42212,13.1351 35.10764,13.95895 36.5183,35.26956"
         id="path101" />
    </g>
    <g
       style="fill:#234b69;fill-opacity:0.996078;stroke-linejoin:miter"
       id="g107">
      <path
         d="m 392.62173,1103.3994 28.45621,5e-4 28.45621,5e-4 q 0,6.527 0,13.0538 -28.45621,5e-4 -56.91242,0 0,-6.5278 0,-13.0558"
         id="path105" />
    </g>
    <g
       style="fill:#234b69;fill-opacity:0.996078;stroke-linejoin:miter"
       id="g111">
      <path
         d="m 293.0717,1105.8904 27.21398,5e-4 27.21402,6e-4 q 0,6.4466 0,12.8934 -27.21402,6e-4 -54.428,0 0,-6.4479 0,-12.8956"
         id="path109" />
    </g>
    <g
       style="fill:#234b69;fill-opacity:0.996078;stroke-linejoin:miter"
       id="g115">
      <path
         d="m 153.54855,598.9358 -3e-5,5e-4 -2e-5,4.7e-4 2e-5,-4.7e-4 3e-5,-5e-4 -3e-5,5e-4 -2e-5,4.7e-4 q 2e-5,-4.7e-4 5e-5,-9.7e-4"
         id="path113" />
    </g>
    <g
       style="fill:#000000;fill-opacity:1;stroke-linejoin:miter"
       id="g119">
      <path
         d="m 357.88977,956.3499 12.24048,5e-4 12.24048,5e-4 q 0,101.1596 0,202.3193 -12.24048,5e-4 -24.48096,9e-4 0,-101.1606 0,-202.3212"
         id="path117" />
    </g>
    <g
       style="fill:#000000;fill-opacity:1;stroke-linejoin:miter"
       id="g123">
      <path
         d="m 140.92253,715.6752 26.77767,5e-4 26.77766,5e-4 q 0,26.7772 0,53.5544 -26.77766,5e-4 -53.55533,9.7e-4 0,-26.77817 0,-53.55637"
         id="path121" />
    </g>
    <g
       style="fill:#000000;fill-opacity:1;stroke-linejoin:miter"
       id="g127">
      <path
         d="m 126.07327,728.88666 v 0 l 24.69637,10e-4 c 1.43616,6e-5 2.60036,1.16436 2.60036,2.60046 v 0 24.69544 c 0,1.43615 -1.1642,2.6004 -2.60036,2.60046 v 0 l -24.69637,10e-4 c -0.68971,0 -1.35118,-0.27393 -1.83888,-0.76166 -0.4877,-0.48767 -0.7617,-1.14914 -0.7617,-1.83884 v 0 -24.6974 c 0,-0.6898 0.274,-1.3512 0.7617,-1.8389 0.4877,-0.48766 1.14917,-0.76164 1.83888,-0.76164 v 0 m -2.3e-4,5.20099 2.60059,-2.60045 v 24.6974 l -2.60059,-2.6005 24.69637,-10e-4 -2.60036,2.60053 v -24.69544 l 2.60036,2.60054 z"
         id="path125" />
    </g>
    <g
       style="fill:#000000;fill-opacity:1;stroke-linejoin:miter"
       id="g131">
      <path
         d="m 227.36258,876.9598 138.08957,4.7e-4 138.08955,4.3e-4 q 0,18.29 0,36.58 -138.08955,5.6e-4 -276.17912,10e-4 0,-18.29102 0,-36.58195"
         id="path129" />
    </g>
    <g
       style="fill:#ffda3e;fill-opacity:0.701961;stroke-linejoin:miter"
       id="g135">
      <path
         d="m 221.88425,470.8413 294.28785,8.6e-4 v 28.42176 l -294.28785,8.5e-4 V 470.8413"
         id="path133" />
    </g>
    <g
       style="fill:#c9d6de;fill-opacity:0.701961;stroke-linejoin:miter"
       id="g139">
      <path
         d="m 348.2673,512.8232 152.78946,9.6e-4 v 69.83414 l -152.78946,10e-4 v -69.8361"
         id="path137" />
    </g>
    <g
       style="fill:#c9d6de;fill-opacity:0.701961;stroke-linejoin:miter"
       id="g143">
      <path
         d="m 242.384,517.1053 72.71723,8e-4 v 103.7078 l -72.71723,8e-4 V 517.1053"
         id="path141" />
    </g>
    <g
       style="fill:#ffbfaf;fill-opacity:0.996078;stroke-linejoin:miter"
       id="g147">
      <path
         d="m 328.93893,560.6821 0.22565,3.0459 q 1.77274,20.18606 -0.34308,29.86825 -1.6425,8.91205 -11.49612,18.29995 l 89.56824,-12.9357 q -14.65769,-5.7598 -18.67398,-14.3059 -4.6074,-7.53503 -7.19706,-33.9372 l -52.08365,9.9647"
         id="path145" />
    </g>
    <g
       style="fill:#ffbfaf;fill-opacity:0.996078;stroke-linejoin:miter"
       id="g151">
      <path
         d="m 317.00204,545.1827 -0.0424,1.97935 q -0.64656,6.00415 -4.86969,9.76825 -4.25361,3.7624 -10.25403,3.3426 -5.73944,-0.7002 -9.35248,-5.13484 -1.1582,-1.4339 -1.94174,-3.14976 l -0.67252,-1.76973 q -0.57028,-1.83187 -0.66202,-3.84597 -0.11563,-6.1879 3.63007,-10.4606 3.74573,-4.2726 9.64455,-4.6815 5.9122,-0.0968 10.00938,3.84006 4.09717,3.93689 4.51086,10.11214"
         id="path149" />
    </g>
    <g
       style="fill:#ffbfaf;fill-opacity:0.996078;stroke-linejoin:miter"
       id="g155">
      <path
         d="m 408.48914,535.94946 -0.0424,1.97944 q -0.64658,6.0042 -4.86975,9.76824 -4.2536,3.76246 -10.25403,3.34266 -5.73944,-0.7002 -9.35245,-5.13483 -3.6116,-4.46657 -3.23392,-10.74497 0.64652,-6.0042 4.86972,-9.7682 4.25355,-3.76247 10.25397,-3.34267 5.7395,0.70014 9.35251,5.13483 1.1582,1.4339 1.94174,3.14978 l 0.67255,1.76971 q 0.57025,1.83185 0.66202,3.84601"
         id="path153" />
    </g>
    <g
       style="fill:#e04d69;fill-opacity:1;stroke-linejoin:miter"
       id="g159">
      <path
         d="m 407.7343,586.7478 -90.88365,8.9237 c -27.07445,13.79334 -45.56281,24.6039 -55.70565,32.1113 -10.50254,7.7735 -17.8636,16.3159 -22.2538,25.7639 -5.00045,10.7612 -10.38316,27.83294 -11.94256,57.1697 l 47.02916,20.9121 4.58348,17.01695 c 14.68878,54.53698 5.92847,103.93695 -3.06265,154.80719 l 172.66562,0.87042 c -5.32975,-12.92456 -7.50665,-55.38896 -8.54642,-74.02726 -1.9353,-34.6853 10.9158,-106.7356 10.9158,-106.7356 l 48.09961,-17.60897 c -1.13837,-14.51463 -2.27411,-25.651 -3.27008,-33.4281 -3.37012,-26.32159 -9.99133,-43.4281 -19.50269,-51.87563 -4.05322,-3.5995 -8.76873,-7.1557 -14.66369,-10.1122 l -33.19913,-13.0185 c -5.68631,-2.46864 -12.43781,-6.05635 -20.25445,-10.7637 z"
         id="path157" />
    </g>
    <g
       style="fill:#ffffff;fill-opacity:1;stroke-linejoin:miter"
       id="g163">
      <path
         d="m 329.33878,506.79248 q -1.81618,0.01 -3.11716,1.26166 -1.26895,1.27526 -1.31085,3.09486 0.0139,1.8197 1.2572,3.11064 1.276,1.27056 3.08945,1.31466 1.8164,-0.008 3.11953,-1.2571 1.27075,-1.2736 1.31522,-3.09332 -0.0121,-1.82008 -1.25351,-3.1131 -1.27353,-1.27168 -3.0871,-1.3183 z"
         id="path161" />
    </g>
    <g
       style="fill:#000000;fill-opacity:1;stroke-linejoin:miter"
       id="g167">
      <path
         d="m 328.68506,506.77368 q -0.85361,9.2e-4 -1.2544,0.20624 l -2.61749,1.74188 1.47391,-0.54132 q -0.25828,1.43305 -0.12433,2.37092 0.12891,1.05663 0.70055,2.2739 1.4273,2.8694 2.9665,2.882 0.7313,-0.009 1.2707,-0.6207 0.51785,-0.62926 0.57577,-1.5648 0.16925,-1.5072 -1.36789,-5.78767 l 0.10007,-0.68567 1.5429,-0.0953 q -2.39865,-0.19246 -3.25497,-0.17952 z"
         id="path165" />
    </g>
    <g
       style="fill:#000000;fill-opacity:1;stroke-linejoin:miter"
       id="g171">
      <path
         d="m 327.18365,499.2412 q -2.3945,0.67732 -4.89959,4.01777 l 13.02604,-2.24731 -0.13713,-0.0668 -1.37249,-0.57216 q -0.73206,-0.29644 -1.30155,-0.50074 -1.11911,-0.40313 -2.04797,-0.6076 -1.86774,-0.41644 -3.26319,-0.0247 z"
         id="path169" />
    </g>
    <g
       style="fill:#ffffff;fill-opacity:1;stroke-linejoin:miter"
       id="g175">
      <path
         d="m 305.06174,511.54504 q -1.81592,0.01 -3.11754,1.2605 -1.2689,1.27551 -1.31084,3.0954 0.0146,1.82006 1.25744,3.11066 1.276,1.27 3.08964,1.31427 1.81634,-0.007 3.11972,-1.25657 1.27034,-1.2744 1.3146,-3.09414 -0.012,-1.81956 -1.25332,-3.11231 -1.27334,-1.27165 -3.08698,-1.31781 z"
         id="path173" />
    </g>
    <g
       style="fill:#000000;fill-opacity:1;stroke-linejoin:miter"
       id="g179">
      <path
         d="m 304.40762,511.5254 q -0.85318,0.001 -1.25369,0.20684 l -2.61803,1.74151 1.47435,-0.5404 q -0.25848,1.43225 -0.12455,2.36999 0.12867,1.05636 0.70057,2.2732 1.42707,2.87086 2.96689,2.88216 0.73096,-0.008 1.27042,-0.62 0.51792,-0.6293 0.5759,-1.565 0.16915,-1.50765 -1.36838,-5.78786 l 0.10074,-0.68481 1.54216,-0.096 q -2.3984,-0.19202 -3.25444,-0.17968 z"
         id="path177" />
    </g>
    <g
       style="fill:#000000;fill-opacity:1;stroke-linejoin:miter"
       id="g183">
      <path
         d="m 302.90616,503.9937 q -2.39423,0.67702 -4.89908,4.01796 l 13.02588,-2.24781 -0.13721,-0.0672 -1.37289,-0.57209 q -0.73148,-0.29541 -1.30116,-0.5 -1.11922,-0.40387 -2.0482,-0.60821 -1.86744,-0.41646 -3.26258,-0.0247 z"
         id="path181" />
    </g>
    <g
       style="fill:#6b2725;fill-opacity:1;stroke-linejoin:miter"
       id="g187">
      <path
         d="m 381.34995,467.94492 2.77337,0.7268 q 8.56468,1.8068 14.92716,6.9762 2.03922,1.84765 3.58902,4.44256 l 1.39694,2.82842 q 1.25921,3.03862 1.84556,7.10463 2.6571,21.40195 -9.90312,59.65671 -3.66818,10.05736 -7.78918,16.58636 -2.06967,3.28906 -4.31366,5.863 -0.9809,1.6456 -7.23142,6.40665 -19.14959,10.96145 -36.63098,6.52675 -22.11526,-5.2836 -40.01644,-41.6913 -6.55186,-13.86145 -9.2152,-28.3272 -2.65062,-14.45862 0.67055,-26.4526 1.72095,-5.9038 4.74032,-10.9514 l 3.25888,-4.82373 q 3.54085,-4.60477 7.86942,-8.29457 4.32853,-3.68977 9.10415,-6.42534 2.3638,-1.99356 14.48154,-5.96176 11.19334,-2.9339 22.02692,0.023 12.12588,3.34073 28.41617,15.78678"
         id="path185" />
    </g>
    <g
       style="fill:#000000;fill-opacity:1;stroke-linejoin:miter"
       id="g191">
      <path
         d="m 255.33133,680.381 114.7988,5e-4 114.79883,4e-4 q 0,129.98407 0,259.9682 -114.79883,5e-4 -229.59763,9e-4 0,-129.98503 0,-259.97"
         id="path189" />
    </g>
  </g>
</svg>
