<?xml version="1.0" encoding="UTF-8" standalone="no"?>
<svg
   width="234.65mm"
   height="149.58mm"
   version="1.1"
   viewBox="0 0 831.42861 529.99998"
   id="svg265"
   sodipodi:docname="phone-nobg.svg"
   inkscape:version="1.2.2 (b0a8486541, 2022-12-01, custom)"
   xmlns:inkscape="http://www.inkscape.org/namespaces/inkscape"
   xmlns:sodipodi="http://sodipodi.sourceforge.net/DTD/sodipodi-0.dtd"
   xmlns="http://www.w3.org/2000/svg"
   xmlns:svg="http://www.w3.org/2000/svg">
  <defs
     id="defs269" />
  <sodipodi:namedview
     id="namedview267"
     pagecolor="#ffffff"
     bordercolor="#666666"
     borderopacity="1.0"
     inkscape:showpageshadow="2"
     inkscape:pageopacity="0.0"
     inkscape:pagecheckerboard="0"
     inkscape:deskcolor="#d1d1d1"
     inkscape:document-units="mm"
     showgrid="false"
     inkscape:zoom="0.68416567"
     inkscape:cx="442.87519"
     inkscape:cy="282.82623"
     inkscape:window-width="1600"
     inkscape:window-height="792"
     inkscape:window-x="0"
     inkscape:window-y="27"
     inkscape:window-maximized="1"
     inkscape:current-layer="svg265" />
  <rect
     x="35.646"
     y="138.56999"
     width="142.99001"
     height="255.96001"
     rx="6.566"
     ry="14.055"
     fill="#455a64"
     fill-rule="evenodd"
     id="rect27" />
  <rect
     x="40.061001"
     y="159.50999"
     width="134.67999"
     height="216.77"
     fill="#4fc3f7"
     fill-rule="evenodd"
     id="rect29" />
  <rect
     x="77.4562"
     y="144.84999"
     width="7.6122999"
     height="7.5272002"
     ry="3.7636001"
     fill="#4fc3f7"
     fill-rule="evenodd"
     id="rect31" />
  <rect
     x="91.569"
     y="146.96999"
     width="41.742001"
     height="4.7684999"
     ry="0.99343002"
     fill="#4fc3f7"
     fill-rule="evenodd"
     id="rect33" />
  <rect
     x="235.64999"
     y="138.56999"
     width="142.99001"
     height="255.96001"
     ry="15.737"
     fill="#ffffff"
     fill-rule="evenodd"
     id="rect35" />
  <rect
     x="240.06"
     y="159.50999"
     width="134.67999"
     height="209.31"
     fill="#ffaaaa"
     fill-rule="evenodd"
     id="rect37" />
  <rect
     x="286.27002"
     y="147.02"
     width="41.742001"
     height="4.7179999"
     ry="0.98290998"
     fill="#ffaaaa"
     fill-rule="evenodd"
     id="rect39" />
  <rect
     x="441.35999"
     y="138.56999"
     width="142.99001"
     height="255.96001"
     ry="11.732"
     fill="#ffffff"
     fill-rule="evenodd"
     id="rect41" />
  <rect
     x="445.78"
     y="162.00999"
     width="134.67999"
     height="204.67"
     fill="#cccccc"
     fill-rule="evenodd"
     id="rect43" />
  <path
     d="m 512.62,205.85 c -17.482,0.26168 -28.023,20.493 -23.926,36.152 -0.16138,14.179 -2.3438,31.624 9.1953,42.439 11.198,10.637 30.047,4.1978 37.041,-8.1875 4.6544,-6.5915 3.1984,-14.705 2.5508,-22.133 0.0548,-14.349 2.4297,-31.752 -9.0312,-42.768 -4.3,-3.7961 -10.153,-5.5707 -15.83,-5.5039 z"
     fill="#ffffff"
     fill-rule="evenodd"
     id="path45" />
  <path
     d="m 512.04,207.87 c -16.23,0.74322 -25.255,19.944 -21.222,34.329 -0.30498,13.955 -2.6424,31.632 9.5174,41.736 15.467,12.036 40.127,-5.7239 35.45,-24.155 -1.4794,-14.672 3.3375,-31.875 -6.6076,-44.709 -3.8764,-5.1183 -10.88,-7.4665 -17.137,-7.2009 z"
     fill="#29b6f6"
     fill-rule="evenodd"
     id="path47" />
  <path
     d="m 512.81,210.17 c -15.315,0.11003 -23.445,18.464 -19.671,31.738 0.0131,13.399 -3.0268,30.29 8.5663,40.157 14.428,11.121 37.195,-6.4413 31.374,-23.262 -0.63381,-14.547 3.7513,-32.026 -7.1669,-44.027 -3.6368,-3.0185 -8.3688,-4.7192 -13.102,-4.6058 z"
     fill="#ffffff"
     fill-rule="evenodd"
     id="path49" />
  <path
     d="m 512.81,212.49 c -14.016,0.1142 -20.726,17.187 -17.364,29.111 0.37166,12.739 -3.3818,28.933 7.613,38.588 13.03,9.9148 33.332,-6.309 27.578,-21.31 -0.61787,-13.863 3.9146,-30.507 -6.1796,-42.29 -3.2306,-2.6893 -7.437,-4.2109 -11.648,-4.0986 z"
     fill="#29b6f6"
     fill-rule="evenodd"
     id="path51" />
  <path
     d="m 512.82,214.81 c -12.981,0.13867 -18.201,16.523 -14.861,27.175 0.13187,12.181 -3.6641,27.985 7.1239,36.89 11.845,7.3474 28.454,-6.7968 23.151,-19.775 -0.63481,-13.469 3.9544,-29.18 -5.2286,-40.698 -2.8189,-2.3584 -6.5018,-3.7006 -10.185,-3.5914 z"
     fill="#ffffff"
     fill-rule="evenodd"
     id="path53" />
  <path
     d="m 512.82,217.13 c -11.282,0.12024 -14.992,13.781 -12.577,22.911 1.0284,11.866 -4.0873,26.502 5.1674,36.195 9.416,7.1966 24.651,-3.7337 20.62,-15.009 -0.88378,-13.062 3.0664,-27.365 -3.0004,-39.569 -2.5058,-2.9222 -6.3536,-4.6652 -10.21,-4.5288 z"
     fill="#29b6f6"
     fill-rule="evenodd"
     id="path55" />
  <path
     d="m 512.85,219.44 c -9.5787,0.13345 -12.134,11.716 -10.396,19.329 1.4008,11.342 -3.4106,24.46 3.2925,34.657 7.0891,7.3216 21.251,-1.1516 18.066,-10.856 -1.0066,-12.682 2.5019,-26.534 -2.0901,-38.864 -2.04,-2.7363 -5.4545,-4.4046 -8.872,-4.2662 z"
     fill="#ffffff"
     fill-rule="evenodd"
     id="path57" />
  <rect
     x="485.31"
     y="146.55"
     width="4.0496998"
     height="4.0043998"
     ry="1.768"
     fill="#b0bec5"
     fill-rule="evenodd"
     id="rect59" />
  <rect
     x="497.34"
     y="146.90001"
     width="30.671"
     height="3.5023"
     ry="0.72965002"
     fill="#b0bec5"
     fill-rule="evenodd"
     id="rect61" />
  <rect
     x="649.92999"
     y="138.56999"
     width="142.99001"
     height="255.96001"
     ry="5.8874998"
     fill="#4db6ac"
     fill-rule="evenodd"
     id="rect63" />
  <rect
     x="654.34998"
     y="159.50999"
     width="134.67999"
     height="216.77"
     fill="#00897b"
     fill-rule="evenodd"
     id="rect65" />
  <rect
     x="699.84003"
     y="144.52998"
     width="9.2372999"
     height="9.1341"
     ry="4.5669999"
     fill="#b3e5fc"
     fill-rule="evenodd"
     id="rect67" />
  <rect
     x="705.84998"
     y="146.8"
     width="41.742001"
     height="4.9452"
     ry="1.0303"
     fill="#b3e5fc"
     fill-rule="evenodd"
     id="rect69" />
  <path
     d="m 512.86,372.14 a 9.4643,9.4643 0 0 0 -9.4648,9.4648 9.4643,9.4643 0 0 0 9.4648,9.4648 9.4643,9.4643 0 0 0 9.4648,-9.4648 9.4643,9.4643 0 0 0 -9.4648,-9.4648 z m 0,2.6797 a 6.7857,6.7857 0 0 1 6.7852,6.7852 6.7857,6.7857 0 0 1 -6.7852,6.7852 6.7857,6.7857 0 0 1 -6.7852,-6.7852 6.7857,6.7857 0 0 1 6.7852,-6.7852 z"
     fill="#cccccc"
     fill-rule="evenodd"
     id="path71" />
  <path
     d="m 291.46,373.73 c -1.3361,0 -2.4121,1.3159 -2.4121,2.9498 v 9.3392 c 0,1.6339 1.076,2.9498 2.4121,2.9498 h 31.359 c 1.3361,0 2.4121,-1.3159 2.4121,-2.9498 v -9.3392 c 0,-1.6339 -1.076,-2.9498 -2.4121,-2.9498 z m 1.0664,2.507 29.227,0.0631 c 0.96285,0.002 1.7383,0.50634 1.7383,1.6838 v 6.7309 c 0,1.1775 -0.77542,1.6818 -1.7383,1.6838 l -29.227,0.0631 c -0.96288,0.002 -1.7383,-0.56948 -1.7383,-1.747 v -6.7309 c 0,-1.1775 0.77542,-1.7491 1.7383,-1.747 z"
     fill="#ffaaaa"
     fill-rule="evenodd"
     id="path73" />
  <rect
     x="331.92999"
     y="146.87001"
     width="4.8688998"
     height="4.8144999"
     ry="1.985"
     fill="#ffaaaa"
     fill-rule="evenodd"
     id="rect75" />
  <rect
     x="897.85999"
     y="312.13998"
     width="1.0714"
     height="0"
     ry="0"
     fill="#039be5"
     fill-rule="evenodd"
     id="rect77" />
  <path
     d="m 91.884,244.92 c 1.1941,-0.80475 1.8056,-0.2499 2.5477,0 l -1.9183,6.3243 c 0,0 -1.6186,-2.4578 -1.4986,-3.0573 0.11988,-0.59946 0.8692,-3.2671 0.8692,-3.2671 z"
     fill="#1976d2"
     fill-rule="evenodd"
     id="path79" />
  <path
     d="m 118.373,244.92 c -1.51,-0.66079 -1.958,-0.25955 -2.5477,0 l 1.9182,6.3243 c 0,0 1.6186,-2.4578 1.4987,-3.0573 -0.11989,-0.59946 -0.86921,-3.2671 -0.86921,-3.2671 z"
     fill="#1976d2"
     fill-rule="evenodd"
     id="path81" />
  <path
     d="m 93.428,239.23 -1.0537,19.305 15.57,19.609 16.706,-20.905 -6.2614,0.218 -1.9983,-18.433 -10.754,9.3739 z"
     fill="#fbd9a5"
     fill-rule="evenodd"
     id="path83" />
  <path
     d="m 116.641,240.4 0.11992,3.7167 c -1.2502,2.9403 -2.9869,5.4914 -5.0355,7.793 -1.6165,1.7172 -4.1656,3.5744 -6.654,3.5968 -2.5684,-0.0352 -4.4776,-2.1324 -6.8339,-3.5368 -2.2127,-2.5304 -3.7791,-5.3839 -5.0355,-8.3925 l 0.47956,-3.5368 c 0,0 3.5968,3.8366 3.5968,4.1962 0,0.35966 1.4986,1.8583 2.3979,2.9374 0.89918,1.079 -0.41961,1.4987 2.0981,1.9183 2.5177,0.41964 3.5968,0.77931 4.6159,0.59947 1.0191,-0.17983 0.29974,0.53952 1.3188,-0.53951 1.0191,-1.079 0.29973,-0.1199 1.139,-1.1989 0.83925,-1.079 0.35969,-0.8992 1.5586,-1.6785 1.199,-0.77931 1.7984,-1.1989 2.5177,-1.9183 0.71938,-0.71937 0.23981,0.06 1.139,-1.139 0.8992,-1.1989 0.29973,-0.77929 0.8992,-1.1989 0.59945,-0.4196 1.0191,-0.77929 1.0191,-0.77929 z"
     fill="#e3bc81"
     fill-rule="evenodd"
     id="path85" />
  <path
     d="m 119.442,209.28 0.51992,10.457 c 0.48346,-1.5116 2.0407,-1.3958 2.7392,-0.77171 0.24737,0.67091 0.12719,2.3615 -0.0942,4.4431 -0.17688,1.6639 -0.27727,3.5021 -0.86392,4.7647 -0.76417,1.8295 -1.9879,2.5903 -2.9672,3.4516 -0.15973,4.146 -1.0972,5.8775 -1.5102,8.778 -1.2147,3.3025 -3.8816,6.1062 -7.1491,9.449 -1.0954,0.83934 -2.5936,1.4269 -4.6022,1.6955 -2.138,-0.11563 -4.0039,-0.66654 -5.5711,-1.6955 -3.0622,-2.5414 -4.7926,-5.4864 -6.8427,-8.4776 -1.0205,-3.2752 -2.5523,-5.5052 -3.0883,-8.9621 -1.8685,-0.66687 -2.6623,-2.2076 -3.6635,-4.0572 -1.0495,-2.6301 -0.66574,-4.8915 -0.54502,-7.5996 0.64593,-0.92852 1.1808,-1.2212 1.9075,0.0303 l -0.72664,-3.5122 c -0.74864,-3.8569 -0.9616,-7.4552 2.9066,-9.0832 l 10.294,-4.4205 15.381,-0.54499 c 1.7777,1.6447 4.0827,2.8839 3.8755,6.0555 z"
     fill="#ffe0b2"
     fill-rule="evenodd"
     id="path87" />
  <path
     d="m 120.956,218.43 0.60554,-3.9966 c 0.77056,-3.1551 1.2581,-6.1847 0.30278,-8.296 -0.31804,-2.8984 -0.0908,-5.8958 -3.815,-8.1749 -4.3902,-4.6144 -11.324,-7.7116 -17.97,-7.9754 l 2.1654,2.8282 c -4.0803,-2.5397 -9.941,-0.0575 -16.388,2.931 l 4.0344,1.0656 c -4.7056,0.85987 -6.4633,5.6353 -9.2987,8.7248 l 2.6982,0.1768 c -1.2022,2.9618 0.29372,6.2557 1.0311,8.4622 l 0.4828,-1.9829 c 0.28404,2.6039 1.7081,4.437 2.3011,7.8116 l 0.60554,0.96889 0.84777,-1.9983 c -0.22202,-2.3058 -0.44406,-3.0345 -0.66611,-4.481 0.66112,-1.9299 1.4387,-3.3358 2.4222,-3.815 5.635,1.4584 11.563,1.0616 17.682,-0.54498 2.2002,-1.7932 4.9938,-2.0458 7.1939,-2.3859 1.498,1.4752 2.0671,2.3042 2.5698,3.9325 0.53616,1.7365 0.38023,3.5142 1.015,5.2355 l 1.4533,2.9066 z"
     fill="#393636"
     fill-rule="evenodd"
     id="path89" />
  <path
     d="m 119.377,228.15 c 0.90928,-1.57 1.4584,-2.6377 1.8626,-2.5692 0.39108,0.0662 0.94213,-5.1384 0.68509,-4.7957 0,-0.93452 -0.52066,-1.2043 -0.62087,-0.64228 -0.30147,1.6908 -1.1347,2.6119 -1.1347,2.6119 0.3471,2.0498 -0.38387,3.7145 -0.77076,5.5022 z"
     fill="#fbd9a5"
     fill-rule="evenodd"
     id="path91" />
  <path
     d="m 120.775,248.4 -1.1511,5.8132 -6.1761,7.3272 -0.72657,3.815 -6.2755,5.7238 0.16029,7.7186 h 49.184 c -1.5994,-8.2357 -3.4737,-15.121 -6.7974,-17.681 l -6.751,-3.397 -2.74,-0.34242 -5.2237,-3.2546 -7.9644,-2.3976 -5.539,-3.3248 z"
     fill="#03a9f4"
     fill-rule="evenodd"
     id="path93" />
  <path
     d="m 90.088,248.1 -4.1693,3.6242 c -1.8702,0.32857 -4.3838,1.0428 -7.9644,2.3976 l -5.0952,3.3401 -2.9599,-0.34837 -6.6596,4.0024 c -3.6784,4.2417 -5.6411,10.598 -7.0842,17.681 h 50.677 l -0.40333,-7.6332 -5.6456,-3.9924 -0.0603,-2.3618 -7.6908,-7.8723 -2.944,-8.8373 z"
     fill="#03a9f4"
     fill-rule="evenodd"
     id="path95" />
  <path
     d="m 118.352,244.89 c -0.48388,6.7245 -2.5252,12.378 -6.661,16.592 v 3.9966 l -5.571,5.8133 6.7588,-5.1809 c 0.7543,-1.3445 0.5993,-1.4985 0.99219,-4.2657 1.2438,-1.4436 2.3483,-1.3033 4.0321,-0.98713 l 4.0701,7.7388 c 0.30795,-5.6164 0.85006,-13.752 -1.32,-20.195 z"
     fill="#0288d1"
     fill-rule="evenodd"
     id="path97" />
  <path
     d="m 106.529,270.94 0.80931,7.7398 -1.3188,0.0574 -0.26976,-7.7399 z"
     fill="#0288d1"
     fill-rule="evenodd"
     id="path99" />
  <path
     d="m 91.905,244.89 c 0.48384,6.7245 5.5567,13.988 9.6926,18.202 l -0.20553,3.6712 4.9716,4.6143 -6.6732,-3.9819 c -0.75431,-1.3445 -0.56506,-2.586 -0.61538,-3.5121 -1.2438,-1.4436 -2.8622,-1.8857 -4.5459,-1.5695 -1.625,3.1758 -3.5387,5.8565 -4.7466,8.2184 -0.30795,-5.6164 -2.3487,-15.688 -0.17864,-22.13 z"
     fill="#0288d1"
     fill-rule="evenodd"
     id="path101" />
  <path
     d="m 115.203,207.67 c 0.79675,-0.89012 4.1378,7.1391 3.1308,7.3992 0.34183,-3.705 -1.5536,-9.7502 -3.7055,-9.9642 -8.6304,-3.6121 -18.272,-0.67683 -27.694,2.0407 0.71416,1.101 1.9568,0.36049 3.1493,0.66418 l -3.8947,4.7157 3.9565,-1.9782 c 5.5133,1.7246 11.633,1.3271 18.104,-0.29974 1.5771,-0.98268 3.4783,-1.9114 6.9538,-2.5777 z"
     fill="#323232"
     fill-rule="evenodd"
     id="path103" />
  <path
     d="m 106.325,222.27 c 0.34242,-0.75863 0.3094,-1.6548 1.6575,-2.045 1.1737,-0.5644 1.7518,-0.4743 2.2993,-0.35052 3.3919,-0.99774 5.5601,0.34968 7.6683,1.1117 -2.4861,-0.24394 -6.4655,-1.1062 -8.7891,1.0147 l 0.22032,-0.46579 -0.73044,0.53825 0.0295,-0.19519 -0.60327,0.35786 -0.0754,-0.16116 -0.13455,0.22919 -0.24398,-0.037 -0.30017,0.005 -0.034,-0.105 -0.28833,0.25582 c -0.21306,0.007 -0.38764,0.1957 -0.67575,-0.15227 z"
     fill="#333333"
     fill-rule="evenodd"
     id="path105" />
  <path
     d="m 108.308,227.52 c 1.5474,-3.3801 3.947,-3.5553 7.177,-1.3698 -1.714,0.57612 -3.416,1.8987 -7.177,1.3698 z"
     fill="#ffffff"
     fill-rule="evenodd"
     id="path107" />
  <path
     d="m 110.082,225.46 c 0.0742,0.6612 0.34688,1.3515 0.84005,1.9542 0.99059,0.19452 1.6018,-0.19325 2.348,-0.52608 0.0938,-0.49264 0.15667,-1.0236 0.0694,-1.7406 -1.0889,-0.25845 -2.1302,-0.72068 -3.2574,0.31241 z"
     fill="#333333"
     fill-rule="evenodd"
     id="path109" />
  <path
     d="m 108.59,225.61 c 1.9988,-2.0811 4.368,-1.6647 6.7821,-0.94588"
     fill="none"
     stroke="#000000"
     stroke-width="0.21629px"
     id="path111" />
  <ellipse
     transform="rotate(-2.3167047)"
     cx="103.28194"
     cy="229.76782"
     rx="0.4449788"
     ry="0.39553896"
     fill="#ffffff"
     fill-rule="evenodd"
     id="ellipse113"
     style="stroke-width:0.999997" />
  <path
     d="m 101.099,222.35 c -0.41947,-0.71892 -0.47982,-1.6137 -1.8612,-1.8616 -1.2261,-0.43931 -1.7917,-0.28959 -2.3233,-0.10955 -3.4773,-0.63967 -5.4936,0.92589 -7.5112,1.903 2.4473,-0.5011 6.3155,-1.7724 8.847,0.0953 l -0.26754,-0.44037 0.78244,0.4594 -0.0497,-0.19104 0.63721,0.29318 0.05826,-0.16815 0.15765,0.21397 0.23881,-0.0622 0.29901,-0.0268 0.0229,-0.10795 0.31335,0.22445 c 0.21261,-0.0152 0.40589,0.15433 0.65626,-0.22172 z"
     fill="#333333"
     fill-rule="evenodd"
     id="path115" />
  <path
     d="m 99.908,227.86 c -1.8154,-3.2441 -4.2213,-3.2248 -7.2642,-0.78559 1.755,0.43578 3.5582,1.6165 7.2642,0.78559 z"
     fill="#ffffff"
     fill-rule="evenodd"
     id="path117" />
  <path
     d="m 97.973,225.95 c -0.02051,0.66504 -0.23655,1.3751 -0.67943,2.0157 -0.97164,0.2739 -1.6122,-0.0632 -2.3828,-0.33469 -0.13325,-0.48346 -0.23883,-1.0076 -0.20975,-1.7292 1.0644,-0.34557 2.0651,-0.89042 3.272,0.0483 z"
     fill="#333333"
     fill-rule="evenodd"
     id="path119" />
  <path
     d="m 99.472,225.98 c -2.1603,-1.9129 -4.4882,-1.3064 -6.8364,-0.39492"
     fill="none"
     stroke="#000000"
     stroke-width="0.21629px"
     id="path121" />
  <ellipse
     transform="matrix(-0.99918265,0.04042311,0.04042311,0.99918265,0,0)"
     cx="-88.045273"
     cy="229.89777"
     rx="0.4449788"
     ry="0.39553896"
     fill="#ffffff"
     fill-rule="evenodd"
     id="ellipse123"
     style="stroke-width:0.999997" />
  <path
     d="m 108.308,227.47 c 1.7575,-4.0506 4.6752,-3.0527 7.3737,-1.3732 -2.8811,-1.4688 -5.9572,-1.3242 -7.3737,1.3732 z"
     fill="#333333"
     fill-rule="evenodd"
     id="path125" />
  <path
     d="m 99.907,227.81 c -2.079,-3.8953 -4.9065,-2.6651 -7.4605,-0.77304 2.7531,-1.6967 5.8307,-1.8011 7.4605,0.77304 z"
     fill="#333333"
     fill-rule="evenodd"
     id="path127" />
  <path
     d="m 100.721,242.11 c 1.0632,-0.38188 1.858,-0.32907 3.0755,-0.42386 l 1.1529,0.16627 1.0352,-0.21142 c 1.1578,-0.084 2.7266,-0.17495 4.1431,0.11304 -1.4592,0.65757 -2.1117,1.9414 -3.195,2.2468 -1.7682,0.3604 -2.0226,0.35887 -3.531,0.2256 -0.95431,-0.50283 -1.7478,-1.7027 -2.6808,-2.1164 z"
     fill="#e3bc81"
     fill-rule="evenodd"
     id="path129" />
  <path
     d="m 101.943,242.42 2.2741,-0.0696 0.85365,0.27872 0.8319,-0.38699 2.5743,-0.0842 c -2.1842,0.65195 -4.3608,1.0417 -6.5339,0.26219 z"
     fill="#ffffff"
     fill-rule="evenodd"
     id="path131" />
  <path
     d="m 105.136,236.96 0.22046,2.6469 -2.7812,-0.19483 z"
     fill="#ffd596"
     fill-rule="evenodd"
     id="path133" />
  <path
     d="m 81.657,214.6 -0.0061,1.2208 v 10.396 l 2.4199,-0.008 v -9.1769 h 9.105 v -2.4199 h -10.314 z"
     color="#000000"
     color-rendering="auto"
     fill="#f44336"
     fill-opacity="0.99479"
     fill-rule="evenodd"
     image-rendering="auto"
     shape-rendering="auto"
     solid-color="#000000"
     style="text-indent:0;text-decoration-line:none;text-decoration-style:solid;text-decoration-color:#000000;text-transform:none;white-space:normal;isolation:auto;mix-blend-mode:normal"
     id="path135" />
  <path
     d="m 113.499,217.03 h 10.474 v -0.64648 h 0.67367 v -1.7735 h -11.148 z"
     color="#000000"
     color-rendering="auto"
     fill="#f44336"
     fill-opacity="0.99479"
     fill-rule="evenodd"
     image-rendering="auto"
     shape-rendering="auto"
     solid-color="#000000"
     style="text-indent:0;text-decoration-line:none;text-decoration-style:solid;text-decoration-color:#000000;text-transform:none;white-space:normal;isolation:auto;mix-blend-mode:normal"
     id="path137" />
  <path
     d="m 122.227,226.37 h 2.4199 v -11.574 h -2.4199 z"
     color="#000000"
     color-rendering="auto"
     fill="#f44336"
     fill-opacity="0.99479"
     fill-rule="evenodd"
     image-rendering="auto"
     shape-rendering="auto"
     solid-color="#000000"
     style="text-indent:0;text-decoration-line:none;text-decoration-style:solid;text-decoration-color:#000000;text-transform:none;white-space:normal;isolation:auto;mix-blend-mode:normal"
     id="path139" />
  <path
     d="m 81.651,251.99 v -0.56892 h 10.583 l 0.04679,-2.4199 h -8.2096 v -8.3868 l -2.4199,-0.0936 v 11.469 z"
     color="#000000"
     color-rendering="auto"
     fill="#f44336"
     fill-opacity="0.99479"
     fill-rule="evenodd"
     image-rendering="auto"
     shape-rendering="auto"
     solid-color="#000000"
     style="text-indent:0;text-decoration-line:none;text-decoration-style:solid;text-decoration-color:#000000;text-transform:none;white-space:normal;isolation:auto;mix-blend-mode:normal"
     id="path141" />
  <path
     d="m 122.227,249 h -8.5234 v 2.4199 h 10.943 v -10.836 h -2.4199 z"
     color="#000000"
     color-rendering="auto"
     fill="#f44336"
     fill-opacity="0.99479"
     fill-rule="evenodd"
     image-rendering="auto"
     shape-rendering="auto"
     solid-color="#000000"
     style="text-indent:0;text-decoration-line:none;text-decoration-style:solid;text-decoration-color:#000000;text-transform:none;white-space:normal;isolation:auto;mix-blend-mode:normal"
     id="path143" />
  <rect
     x="73.013397"
     y="288.25003"
     width="67.887001"
     height="4.75"
     fill="#f9f9f9"
     fill-rule="evenodd"
     id="rect145" />
  <rect
     x="73.013397"
     y="288.25003"
     width="46.916"
     height="4.75"
     fill="#ce93d8"
     fill-rule="evenodd"
     id="rect147" />
  <rect
     x="118.4"
     y="286.43002"
     width="1.5"
     height="8.625"
     fill="#ce93d8"
     fill-rule="evenodd"
     id="rect149" />
  <circle
     cx="267.5"
     cy="210.49998"
     r="6.5"
     fill="#ffffff"
     fill-rule="evenodd"
     id="circle151" />
  <circle
     cx="307.5"
     cy="210.49998"
     r="6.5"
     fill="#ffffff"
     fill-rule="evenodd"
     id="circle153" />
  <circle
     cx="348.75"
     cy="210.49998"
     r="6.5"
     fill="#ffffff"
     fill-rule="evenodd"
     id="circle155" />
  <circle
     cx="267.5"
     cy="249.74001"
     r="6.5"
     fill="#ffffff"
     fill-rule="evenodd"
     id="circle157" />
  <circle
     cx="307.5"
     cy="249.74001"
     r="6.5"
     fill="#ffffff"
     fill-rule="evenodd"
     id="circle159" />
  <circle
     cx="348.75"
     cy="249.74001"
     r="6.5"
     fill="#ffffff"
     fill-rule="evenodd"
     id="circle161" />
  <circle
     cx="267.5"
     cy="290.05002"
     r="6.5"
     fill="#ffffff"
     fill-rule="evenodd"
     id="circle163" />
  <circle
     cx="307.5"
     cy="290.05002"
     r="6.5"
     fill="#ffffff"
     fill-rule="evenodd"
     id="circle165" />
  <circle
     cx="348.75"
     cy="290.05002"
     r="6.5"
     fill="#ffffff"
     fill-rule="evenodd"
     id="circle167" />
  <rect
     x="281"
     y="352.25003"
     width="50.25"
     height="6.25"
     ry="1.5"
     fill="#ffffff"
     fill-rule="evenodd"
     id="rect169" />
  <rect
     x="82.275002"
     y="361.72"
     width="50.25"
     height="5.2776999"
     ry="1.2667"
     fill="#ffffff"
     fill-rule="evenodd"
     id="rect171" />
  <g
     transform="translate(7.143,-28.08)"
     id="g233">
    <path
       d="m 673.58,235.36 a 13.089,13.089 0 0 0 -13.09,13.09 13.089,13.089 0 0 0 13.09,13.09 13.089,13.089 0 0 0 13.09,-13.09 13.089,13.089 0 0 0 -13.09,-13.09 z m 0,2.1309 a 10.96,10.96 0 0 1 10.959,10.959 10.96,10.96 0 0 1 -10.959,10.961 10.96,10.96 0 0 1 -10.961,-10.961 10.96,10.96 0 0 1 10.961,-10.959 z"
       fill="#ffffff"
       fill-rule="evenodd"
       id="path173" />
    <path
       d="m 756.9,235.36 a 13.089,13.089 0 0 0 -13.09,13.09 13.089,13.089 0 0 0 13.09,13.09 13.089,13.089 0 0 0 13.09,-13.09 13.089,13.089 0 0 0 -13.09,-13.09 z m 0,2.1309 a 10.96,10.96 0 0 1 10.959,10.959 10.96,10.96 0 0 1 -10.959,10.961 10.96,10.96 0 0 1 -10.961,-10.961 10.96,10.96 0 0 1 10.961,-10.959 z"
       fill="#ffffff"
       fill-rule="evenodd"
       id="path175" />
    <path
       d="m 715.88,235.36 a 13.089,13.089 0 0 0 -13.09,13.09 13.089,13.089 0 0 0 13.09,13.09 13.089,13.089 0 0 0 13.09,-13.09 13.089,13.089 0 0 0 -13.09,-13.09 z m 0,2.1309 a 10.96,10.96 0 0 1 10.959,10.959 10.96,10.96 0 0 1 -10.959,10.961 10.96,10.96 0 0 1 -10.961,-10.961 10.96,10.96 0 0 1 10.961,-10.959 z"
       fill="#ffffff"
       fill-rule="evenodd"
       id="path177" />
    <text
       x="710.42737"
       y="254.98737"
       fill="#ffffff"
       font-family="'Maiandra GD'"
       font-size="19.551px"
       letter-spacing="0px"
       stroke-width="1px"
       word-spacing="0px"
       style="line-height:125%"
       id="text181"><tspan
         x="710.42737"
         y="254.98737"
         id="tspan179">2</tspan></text>
    <text
       x="669.86487"
       y="254.98737"
       fill="#ffffff"
       font-family="'Maiandra GD'"
       font-size="19.551px"
       letter-spacing="0px"
       stroke-width="1px"
       word-spacing="0px"
       style="line-height:125%"
       id="text185"><tspan
         x="669.86487"
         y="254.98737"
         id="tspan183">1</tspan></text>
    <text
       x="752.42737"
       y="254.98737"
       fill="#ffffff"
       font-family="'Maiandra GD'"
       font-size="19.551px"
       letter-spacing="0px"
       stroke-width="1px"
       word-spacing="0px"
       style="line-height:125%"
       id="text189"><tspan
         x="752.42737"
         y="254.98737"
         id="tspan187">3</tspan></text>
    <path
       d="m 673.58,274.36 a 13.089,13.089 0 0 0 -13.09,13.09 13.089,13.089 0 0 0 13.09,13.09 13.089,13.089 0 0 0 13.09,-13.09 13.089,13.089 0 0 0 -13.09,-13.09 z m 0,2.1309 a 10.96,10.96 0 0 1 10.959,10.959 10.96,10.96 0 0 1 -10.959,10.961 10.96,10.96 0 0 1 -10.961,-10.961 10.96,10.96 0 0 1 10.961,-10.959 z"
       fill="#ffffff"
       fill-rule="evenodd"
       id="path191" />
    <path
       d="m 756.9,274.36 a 13.089,13.089 0 0 0 -13.09,13.09 13.089,13.089 0 0 0 13.09,13.09 13.089,13.089 0 0 0 13.09,-13.09 13.089,13.089 0 0 0 -13.09,-13.09 z m 0,2.1309 a 10.96,10.96 0 0 1 10.959,10.959 10.96,10.96 0 0 1 -10.959,10.961 10.96,10.96 0 0 1 -10.961,-10.961 10.96,10.96 0 0 1 10.961,-10.959 z"
       fill="#ffffff"
       fill-rule="evenodd"
       id="path193" />
    <path
       d="m 715.88,274.36 a 13.089,13.089 0 0 0 -13.09,13.09 13.089,13.089 0 0 0 13.09,13.09 13.089,13.089 0 0 0 13.09,-13.09 13.089,13.089 0 0 0 -13.09,-13.09 z m 0,2.1309 a 10.96,10.96 0 0 1 10.959,10.959 10.96,10.96 0 0 1 -10.959,10.961 10.96,10.96 0 0 1 -10.961,-10.961 10.96,10.96 0 0 1 10.961,-10.959 z"
       fill="#ffffff"
       fill-rule="evenodd"
       id="path195" />
    <text
       x="710.42737"
       y="293.98737"
       fill="#ffffff"
       font-family="'Maiandra GD'"
       font-size="19.551px"
       letter-spacing="0px"
       stroke-width="1px"
       word-spacing="0px"
       style="line-height:125%"
       id="text199"><tspan
         x="710.42737"
         y="293.98737"
         id="tspan197">5</tspan></text>
    <text
       x="667.86487"
       y="293.98737"
       fill="#ffffff"
       font-family="'Maiandra GD'"
       font-size="19.551px"
       letter-spacing="0px"
       stroke-width="1px"
       word-spacing="0px"
       style="line-height:125%"
       id="text203"><tspan
         x="667.86487"
         y="293.98737"
         id="tspan201">4</tspan></text>
    <text
       x="750.83362"
       y="293.98737"
       fill="#ffffff"
       font-family="'Maiandra GD'"
       font-size="19.551px"
       letter-spacing="0px"
       stroke-width="1px"
       word-spacing="0px"
       style="line-height:125%"
       id="text207"><tspan
         x="750.83362"
         y="293.98737"
         id="tspan205">6</tspan></text>
    <path
       d="m 673.58,314.36 a 13.089,13.089 0 0 0 -13.09,13.09 13.089,13.089 0 0 0 13.09,13.09 13.089,13.089 0 0 0 13.09,-13.09 13.089,13.089 0 0 0 -13.09,-13.09 z m 0,2.1309 a 10.96,10.96 0 0 1 10.959,10.959 10.96,10.96 0 0 1 -10.959,10.961 10.96,10.96 0 0 1 -10.961,-10.961 10.96,10.96 0 0 1 10.961,-10.959 z"
       fill="#ffffff"
       fill-rule="evenodd"
       id="path209" />
    <path
       d="m 756.9,314.36 a 13.089,13.089 0 0 0 -13.09,13.09 13.089,13.089 0 0 0 13.09,13.09 13.089,13.089 0 0 0 13.09,-13.09 13.089,13.089 0 0 0 -13.09,-13.09 z m 0,2.1309 a 10.96,10.96 0 0 1 10.959,10.959 10.96,10.96 0 0 1 -10.959,10.961 10.96,10.96 0 0 1 -10.961,-10.961 10.96,10.96 0 0 1 10.961,-10.959 z"
       fill="#ffffff"
       fill-rule="evenodd"
       id="path211" />
    <path
       d="m 715.88,314.36 a 13.089,13.089 0 0 0 -13.09,13.09 13.089,13.089 0 0 0 13.09,13.09 13.089,13.089 0 0 0 13.09,-13.09 13.089,13.089 0 0 0 -13.09,-13.09 z m 0,2.1309 a 10.96,10.96 0 0 1 10.959,10.959 10.96,10.96 0 0 1 -10.959,10.961 10.96,10.96 0 0 1 -10.961,-10.961 10.96,10.96 0 0 1 10.961,-10.959 z"
       fill="#ffffff"
       fill-rule="evenodd"
       id="path213" />
    <text
       x="710.42737"
       y="333.98737"
       fill="#ffffff"
       font-family="'Maiandra GD'"
       font-size="19.551px"
       letter-spacing="0px"
       stroke-width="1px"
       word-spacing="0px"
       style="line-height:125%"
       id="text217"><tspan
         x="710.42737"
         y="333.98737"
         id="tspan215">8</tspan></text>
    <text
       x="667.86487"
       y="334.48737"
       fill="#ffffff"
       font-family="'Maiandra GD'"
       font-size="19.551px"
       letter-spacing="0px"
       stroke-width="1px"
       word-spacing="0px"
       style="line-height:125%"
       id="text221"><tspan
         x="667.86487"
         y="334.48737"
         id="tspan219">7</tspan></text>
    <text
       x="751.45233"
       y="333.98737"
       fill="#ffffff"
       font-family="'Maiandra GD'"
       font-size="19.551px"
       letter-spacing="0px"
       stroke-width="1px"
       word-spacing="0px"
       style="line-height:125%"
       id="text225"><tspan
         x="751.45233"
         y="333.98737"
         id="tspan223">9</tspan></text>
    <path
       d="m 715.88,351.86 a 13.089,13.089 0 0 0 -13.09,13.09 13.089,13.089 0 0 0 13.09,13.09 13.089,13.089 0 0 0 13.09,-13.09 13.089,13.089 0 0 0 -13.09,-13.09 z m 0,2.1309 a 10.96,10.96 0 0 1 10.959,10.959 10.96,10.96 0 0 1 -10.959,10.961 10.96,10.96 0 0 1 -10.961,-10.961 10.96,10.96 0 0 1 10.961,-10.959 z"
       fill="#ffffff"
       fill-rule="evenodd"
       id="path227" />
    <text
       x="710.42737"
       y="371.48737"
       fill="#ffffff"
       font-family="'Maiandra GD'"
       font-size="19.551px"
       letter-spacing="0px"
       stroke-width="1px"
       word-spacing="0px"
       style="line-height:125%"
       id="text231"><tspan
         x="710.42737"
         y="371.48737"
         id="tspan229">0</tspan></text>
  </g>
  <path
     d="m 512.87,221.76 c -8.3184,0.22517 -9.3086,10.434 -8.127,16.707 1.1634,10.654 -2.4137,22.236 1.8115,32.37 5.2305,7.1084 17.678,0.53739 14.946,-7.8705 -0.77406,-12.385 1.8041,-25.341 -1.2983,-37.375 -1.5557,-2.437 -4.4372,-3.9655 -7.3322,-3.8314 z"
     fill="#29b6f6"
     fill-rule="evenodd"
     id="path235" />
  <path
     d="m 513.08,224.08 c -7.1422,0.20098 -6.5228,9.332 -5.9781,14.2 0.72944,9.9279 -1.2967,20.329 0.68613,30.051 2.8403,6.1822 12.916,2.6498 11.487,-3.965 -0.52139,-12.172 0.93615,-24.636 -0.52308,-36.675 -0.94513,-2.2051 -3.274,-3.6867 -5.6724,-3.6118 z"
     fill="#ffffff"
     fill-rule="evenodd"
     id="path237" />
  <rect
     x="509.35001"
     y="226.38997"
     width="7.5359998"
     height="42.896999"
     ry="3.7679999"
     fill="#29b6f6"
     fill-rule="evenodd"
     id="rect239" />
  <circle
     cx="504.70001"
     cy="222.05"
     r="1.4141999"
     fill="#ffffff"
     fill-rule="evenodd"
     id="circle241" />
  <circle
     cx="496.04001"
     cy="230.8"
     r="1.4141999"
     fill="#ffffff"
     fill-rule="evenodd"
     id="circle243" />
  <circle
     cx="501.34"
     cy="244.68001"
     r="1.4141999"
     fill="#ffffff"
     fill-rule="evenodd"
     id="circle245" />
  <circle
     cx="496.39001"
     cy="257.32004"
     r="1.4141999"
     fill="#ffffff"
     fill-rule="evenodd"
     id="circle247" />
  <circle
     cx="503.37"
     cy="271.73001"
     r="1.4141999"
     fill="#ffffff"
     fill-rule="evenodd"
     id="circle249" />
  <circle
     cx="522.72998"
     cy="272.61002"
     r="1.4141999"
     fill="#ffffff"
     fill-rule="evenodd"
     id="circle251" />
  <circle
     cx="529.62"
     cy="259.26004"
     r="1.4141999"
     fill="#ffffff"
     fill-rule="evenodd"
     id="circle253" />
  <circle
     cx="525.25"
     cy="245.50002"
     r="1.4141999"
     fill="#ffffff"
     fill-rule="evenodd"
     id="circle255" />
  <circle
     cx="528.25"
     cy="226.00002"
     r="1.4141999"
     fill="#ffffff"
     fill-rule="evenodd"
     id="circle257" />
  <circle
     cx="518.62"
     cy="219.62001"
     r="1.4141999"
     fill="#ffffff"
     fill-rule="evenodd"
     id="circle259" />
  <circle
     cx="509.91"
     cy="214.06001"
     r="1.4141999"
     fill="#ffffff"
     fill-rule="evenodd"
     id="circle261" />
</svg>
