<?xml version="1.0" encoding="UTF-8" standalone="no"?>
<!-- Created with Inkscape (http://www.inkscape.org/) -->

<svg
   version="1.1"
   id="svg85"
   xml:space="preserve"
   width="200"
   height="200"
   viewBox="0 0 200 200"
   sodipodi:docname="todo.svg"
   inkscape:version="1.1.1 (3bf5ae0d25, 2021-09-20)"
   xmlns:inkscape="http://www.inkscape.org/namespaces/inkscape"
   xmlns:sodipodi="http://sodipodi.sourceforge.net/DTD/sodipodi-0.dtd"
   xmlns="http://www.w3.org/2000/svg"
   xmlns:svg="http://www.w3.org/2000/svg"><defs
     id="defs89"><clipPath
       clipPathUnits="userSpaceOnUse"
       id="clipPath101"><path
         d="M 0,1080 H 1920 V 0 H 0 Z"
         id="path99" /></clipPath><clipPath
       clipPathUnits="userSpaceOnUse"
       id="clipPath117"><path
         d="M 814.047,926.451 H 1005.29 V 735.205 H 814.047 Z"
         id="path115" /></clipPath><clipPath
       clipPathUnits="userSpaceOnUse"
       id="clipPath193"><path
         d="m 874.449,430.082 h 112.718 v -96.16 H 874.449 Z"
         id="path191" /></clipPath><clipPath
       clipPathUnits="userSpaceOnUse"
       id="clipPath221"><path
         d="m 885.21,431.21 h 62.502 V 417.462 H 885.21 Z"
         id="path219" /></clipPath><clipPath
       clipPathUnits="userSpaceOnUse"
       id="clipPath241"><path
         d="m 841.392,648.719 h 29.323 v -65.136 h -29.323 z"
         id="path239" /></clipPath><clipPath
       clipPathUnits="userSpaceOnUse"
       id="clipPath265"><path
         d="M 461.11,749.542 H 683.744 V 414.131 H 461.11 Z"
         id="path263" /></clipPath><clipPath
       clipPathUnits="userSpaceOnUse"
       id="clipPath285"><path
         d="M 515.333,759.31 H 768.178 V 525.822 H 515.333 Z"
         id="path283" /></clipPath></defs><sodipodi:namedview
     id="namedview87"
     pagecolor="#ffffff"
     bordercolor="#666666"
     borderopacity="1.0"
     inkscape:pageshadow="2"
     inkscape:pageopacity="0.0"
     inkscape:pagecheckerboard="0"
     showgrid="false"
     width="200px"
     inkscape:zoom="1.9524004"
     inkscape:cx="218.44904"
     inkscape:cy="112.9379"
     inkscape:window-width="1600"
     inkscape:window-height="790"
     inkscape:window-x="0"
     inkscape:window-y="27"
     inkscape:window-maximized="1"
     inkscape:current-layer="g91" /><g
     id="g91"
     inkscape:groupmode="layer"
     inkscape:label="freelance-4071263"
     transform="matrix(1.3333333,0,0,-1.3333333,0,1440)"><g
       id="g95"
       transform="matrix(0.14812145,0,0,0.14812145,-60.907556,923.42657)"><g
         id="g97"
         clip-path="url(#clipPath101)"><g
           id="g103"
           transform="translate(1026.9961,830.8252)"><path
             d="m 0,0 c 0,-64.796 -52.532,-117.323 -117.329,-117.323 -64.796,0 -117.322,52.527 -117.322,117.323 0,64.796 52.526,117.325 117.322,117.325 C -52.532,117.325 0,64.796 0,0"
             style="fill:#003066;fill-opacity:1;fill-rule:nonzero;stroke:none"
             id="path105" /></g><g
           id="g107"
           transform="translate(1005.291,830.8252)"><path
             d="m 0,0 c 0,-52.807 -42.811,-95.621 -95.624,-95.621 -52.807,0 -95.62,42.814 -95.62,95.621 0,52.813 42.813,95.625 95.62,95.625 C -42.811,95.625 0,52.813 0,0"
             style="fill:#00c6c3;fill-opacity:1;fill-rule:nonzero;stroke:none"
             id="path109" /></g><g
           id="g111"><g
             id="g113" /><g
             id="g125"><g
               clip-path="url(#clipPath117)"
               opacity="0.300003"
               id="g123"><g
                 transform="translate(909.6675,738.5947)"
                 id="g121"><path
                   d="m 0,0 c -50.934,0 -92.228,41.296 -92.228,92.23 0,50.94 41.294,92.233 92.228,92.233 50.942,0 92.234,-41.293 92.234,-92.233 C 92.234,41.296 50.942,0 0,0 m 0,187.856 c -52.807,0 -95.62,-42.813 -95.62,-95.626 0,-52.807 42.813,-95.62 95.62,-95.62 52.813,0 95.624,42.813 95.624,95.62 0,52.813 -42.811,95.626 -95.624,95.626"
                   style="fill:#000000;fill-opacity:1;fill-rule:nonzero;stroke:none"
                   id="path119" /></g></g></g></g><path
           d="m 911.366,906.556 h -3.392 v 18.311 h 3.392 z"
           style="fill:#ededed;fill-opacity:1;fill-rule:nonzero;stroke:none"
           id="path127" /><path
           d="m 911.366,736.561 h -3.392 v 18.309 h 3.392 z"
           style="fill:#ededed;fill-opacity:1;fill-rule:nonzero;stroke:none"
           id="path129" /><path
           d="m 985.512,829.132 h 18.312 v 3.389 h -18.312 z"
           style="fill:#ededed;fill-opacity:1;fill-rule:nonzero;stroke:none"
           id="path131" /><path
           d="m 815.518,829.132 h 18.311 v 3.389 h -18.311 z"
           style="fill:#ededed;fill-opacity:1;fill-rule:nonzero;stroke:none"
           id="path133" /><g
           id="g135"
           transform="translate(960.9014,885.1567)"><path
             d="m 0,0 2.395,-2.397 12.95,12.948 -2.399,2.399 z"
             style="fill:#ededed;fill-opacity:1;fill-rule:nonzero;stroke:none"
             id="path137" /></g><g
           id="g139"
           transform="translate(840.6953,764.9512)"><path
             d="m 0,0 2.4,-2.397 12.95,12.95 -2.4,2.397 z"
             style="fill:#ededed;fill-opacity:1;fill-rule:nonzero;stroke:none"
             id="path141" /></g><g
           id="g143"
           transform="translate(963.2959,775.5039)"><path
             d="m 0,0 2.399,2.397 12.951,-12.95 -2.4,-2.397 z"
             style="fill:#ededed;fill-opacity:1;fill-rule:nonzero;stroke:none"
             id="path145" /></g><g
           id="g147"
           transform="translate(843.0957,895.7075)"><path
             d="m 0,0 2.399,2.399 12.945,-12.95 -2.395,-2.397 z"
             style="fill:#ededed;fill-opacity:1;fill-rule:nonzero;stroke:none"
             id="path149" /></g><g
           id="g151"
           transform="translate(913.0625,828.0825)"><path
             d="m 0,0 c 0,-1.779 -1.444,-3.221 -3.224,-3.221 -1.776,0 -3.22,1.442 -3.22,3.221 v 66.801 c 0,1.779 1.444,3.223 3.22,3.223 1.78,0 3.224,-1.444 3.224,-3.223 z"
             style="fill:#ffb53c;fill-opacity:1;fill-rule:nonzero;stroke:none"
             id="path153" /></g><g
           id="g155"
           transform="translate(913.0493,829.5137)"><path
             d="m 0,0 c -0.732,-0.735 -1.925,-0.735 -2.659,0 -0.735,0.735 -0.735,1.927 0,2.66 l 27.582,27.583 c 0.735,0.734 1.928,0.734 2.66,0 0.735,-0.736 0.735,-1.928 0,-2.66 z"
             style="fill:#ffb53c;fill-opacity:1;fill-rule:nonzero;stroke:none"
             id="path157" /></g><g
           id="g159"
           transform="translate(920.8599,828.9629)"><path
             d="m 0,0 c 0,-6.088 -4.933,-11.02 -11.021,-11.02 -6.085,0 -11.018,4.932 -11.018,11.02 0,6.085 4.933,11.02 11.018,11.02 C -4.933,11.02 0,6.085 0,0"
             style="fill:#ffb53c;fill-opacity:1;fill-rule:nonzero;stroke:none"
             id="path161" /></g><g
           id="g163"
           transform="translate(916.8467,828.9629)"><path
             d="m 0,0 c 0,-3.872 -3.137,-7.007 -7.008,-7.007 -3.869,0 -7.007,3.135 -7.007,7.007 0,3.87 3.138,7.007 7.007,7.007 C -3.137,7.007 0,3.87 0,0"
             style="fill:#00537b;fill-opacity:1;fill-rule:nonzero;stroke:none"
             id="path165" /></g><g
           id="g167"
           transform="translate(829.9009,352.7393)"><path
             d="m 0,0 c 0,0 -106.5,-31.681 -106.5,-79.614 v -102.51 h 392.179 v 108.735 c 0,0 3.116,33.368 -105.924,74.376 -7.785,2.966 -14.559,9.337 -22.489,14.422 C 62.786,75.084 58.979,-21.22 58.979,-21.22 Z"
             style="fill:#303030;fill-opacity:1;fill-rule:evenodd;stroke:none"
             id="path169" /></g><g
           id="g171"
           transform="translate(917.7271,328.1328)"><path
             d="m 0,0 -19.23,-25.594 11.17,-11.03 -16.18,-120.894 h 22.004 26.128 l -12.924,120.894 12.924,9.935 -14.28,26.546 z"
             style="fill:#336699;fill-opacity:1;fill-rule:evenodd;stroke:none"
             id="path173" /></g><g
           id="g175"
           transform="translate(987.167,368.1484)"><path
             d="m 0,0 21.778,-15.409 -69.44,-69.295 -18.524,44.688 6.93,19.233 z"
             style="fill:#e6e6e6;fill-opacity:1;fill-rule:evenodd;stroke:none"
             id="path177" /></g><g
           id="g179"
           transform="translate(852.5312,365.7461)"><path
             d="m 0,0 -22.63,-13.007 69.299,-69.295 18.527,44.689 -6.792,19.232 z"
             style="fill:#e6e6e6;fill-opacity:1;fill-rule:evenodd;stroke:none"
             id="path181" /></g><g
           id="g183"
           transform="translate(852.5312,419.6211)"><path
             d="m 0,0 v -53.875 l 65.196,-37.613 69.44,40.015 v 61.934 z"
             style="fill:#e6ae75;fill-opacity:1;fill-rule:evenodd;stroke:none"
             id="path185" /></g><g
           id="g187"><g
             id="g189" /><g
             id="g201"><g
               clip-path="url(#clipPath193)"
               opacity="0.199997"
               id="g199"><g
                 transform="translate(927.9111,333.9219)"
                 id="g197"><path
                   d="M 0,0 59.256,34.227 V 96.16 L 6.503,85.416 -53.462,53.321 Z"
                   style="fill:#000000;fill-opacity:1;fill-rule:evenodd;stroke:none"
                   id="path195" /></g></g></g></g><g
           id="g203"
           transform="translate(876.4312,616.4429)"><path
             d="m 0,0 c -33.663,11.314 -58.415,6.083 -60.674,-38.883 -2.265,-44.824 -9.759,-111.419 14.284,-137.576 23.9,-26.303 44.828,-72.679 85.988,-65.184 h 0.849 c 41.156,-7.495 62.079,38.881 86.13,65.184 23.902,26.157 16.41,92.752 14.144,137.576 C 138.461,6.083 113.845,11.314 80.187,0 47.659,-10.745 32.946,-10.885 0,0"
             style="fill:#ffcc99;fill-opacity:1;fill-rule:evenodd;stroke:none"
             id="path205" /></g><g
           id="g207"
           transform="translate(876.4312,616.4429)"><path
             d="m 0,0 c -33.663,11.314 -58.415,6.083 -60.674,-38.883 -2.265,-44.824 -9.759,-111.419 14.284,-137.576 23.9,-26.303 44.828,-72.679 85.988,-65.184 h 0.849 c 41.156,-7.495 62.079,38.881 86.13,65.184 23.902,26.157 16.41,92.752 14.144,137.576 C 138.461,6.083 113.845,11.314 80.187,0 47.659,-10.745 32.946,-10.885 0,0"
             style="fill:#ffcc99;fill-opacity:1;fill-rule:evenodd;stroke:none"
             id="path209" /></g><g
           id="g211"
           transform="translate(909.6675,291.5088)"><path
             d="M 0,0 C 0,0 8.28,5.948 19.027,0 H 4.525 Z"
             style="fill:#1c4e80;fill-opacity:1;fill-rule:evenodd;stroke:none"
             id="path213" /></g><g
           id="g215"><g
             id="g217" /><g
             id="g229"><g
               clip-path="url(#clipPath221)"
               opacity="0.300003"
               id="g227"><g
                 transform="translate(885.9023,430.082)"
                 id="g225"><path
                   d="m 0,0 c 0,0 31.544,-29.133 61.81,1.128 0,0 -20.788,-7.488 -34.788,-6.784 C 12.875,-4.805 -4.378,1.84 0,0"
                   style="fill:#000000;fill-opacity:1;fill-rule:evenodd;stroke:none"
                   id="path223" /></g></g></g></g><g
           id="g231"
           transform="translate(870.7144,583.5825)"><path
             d="m 0,0 c 0,0 -43.702,-39.829 -50.584,-56.662 l -7.22,-29.668 c 0,0 -20.441,53.948 -20.441,80.931 0,26.985 20.235,62.736 49.914,70.829 0,0 24.098,37.434 88.429,30.354 134.171,-14.768 96.872,-151.685 88.883,-169.943 0,0 -22.833,55.272 -66.679,68.087 C 38.455,6.743 24.962,-13.49 0,0"
             style="fill:#353535;fill-opacity:1;fill-rule:evenodd;stroke:none"
             id="path233" /></g><g
           id="g235"><g
             id="g237" /><g
             id="g249"><g
               clip-path="url(#clipPath241)"
               opacity="0.199997"
               id="g247"><g
                 transform="translate(841.3916,648.7187)"
                 id="g245"><path
                   d="M 0,0 C 0,0 17.511,-59.554 29.323,-65.136 Z"
                   style="fill:#000000;fill-opacity:1;fill-rule:evenodd;stroke:none"
                   id="path243" /></g></g></g></g><g
           id="g251"
           transform="translate(491.1318,615.6353)"><path
             d="m 0,0 c 8.286,19.923 26.565,31.58 42.865,28.508 -1.546,1.067 -3.135,2.088 -4.922,2.83 C 20.461,38.605 -1.174,26.513 -10.399,4.327 -19.625,-17.861 -12.939,-41.729 4.542,-49 6.327,-49.743 8.171,-50.147 10.02,-50.493 -3.655,-41.099 -8.28,-19.921 0,0"
             style="fill:#005c7a;fill-opacity:1;fill-rule:nonzero;stroke:none"
             id="path253" /></g><g
           id="g255"
           transform="translate(768.1777,672.6235)"><path
             d="m 0,0 -122.07,-293.597 -189.569,78.816 122.074,293.597 z"
             style="fill:#003b5c;fill-opacity:1;fill-rule:nonzero;stroke:none"
             id="path257" /></g><g
           id="g259"><g
             id="g261" /><g
             id="g273"><g
               clip-path="url(#clipPath265)"
               opacity="0.100006"
               id="g271"><g
                 transform="translate(561.6733,414.1309)"
                 id="g269"><path
                   d="m 0,0 c 15.142,23.225 68.107,105.328 81.766,138.179 13.659,32.852 34.515,128.299 40.304,155.419 L 21.508,335.411 -100.563,41.813 Z"
                   style="fill:#000000;fill-opacity:1;fill-rule:nonzero;stroke:none"
                   id="path267" /></g></g></g></g><g
           id="g275"
           transform="translate(550.6787,410.5645)"><path
             d="m 0,0 c 0,0 69.975,106.142 85.954,144.576 15.981,38.434 41.885,162.899 41.885,162.899 L 28.575,348.746 -99.262,41.272 Z"
             style="fill:#003b5c;fill-opacity:1;fill-rule:nonzero;stroke:none"
             id="path277" /></g><g
           id="g279"><g
             id="g281" /><g
             id="g293"><g
               clip-path="url(#clipPath285)"
               opacity="0.199997"
               id="g291"><g
                 transform="translate(707.1401,525.8223)"
                 id="g289"><path
                   d="m 0,0 61.038,146.801 -84.434,35.105 -6.811,2.831 c 0.988,4.613 1.585,7.48 1.585,7.48 l -99.264,41.271 -63.921,-153.737 z"
                   style="fill:#000000;fill-opacity:1;fill-rule:nonzero;stroke:none"
                   id="path287" /></g></g></g></g><g
           id="g295"
           transform="translate(660.2983,562.0259)"><path
             d="m 0,0 c 7.875,-3.273 11.594,-12.309 8.319,-20.184 -3.273,-7.874 -12.303,-11.608 -20.178,-8.337 l -21.599,8.981 c -7.877,3.276 -11.596,12.311 -8.324,20.186 3.275,7.875 12.305,11.61 20.181,8.335 z"
             style="fill:#00a0b0;fill-opacity:1;fill-rule:nonzero;stroke:none"
             id="path297" /></g><g
           id="g299"
           transform="translate(655.1475,559.0181)"><path
             d="m 0,0 c 5.458,-2.268 8.026,-8.516 5.756,-13.968 -2.265,-5.454 -8.508,-8.041 -13.963,-5.774 l -14.955,6.221 c -5.454,2.264 -8.023,8.516 -5.755,13.97 2.267,5.451 8.511,8.038 13.965,5.769 z"
             style="fill:#1e1e1e;fill-opacity:1;fill-rule:nonzero;stroke:none"
             id="path301" /></g><g
           id="g303"
           transform="translate(1270.2725,757.9595)"><path
             d="m 0,0 -87.964,-32.637 c -0.166,0.805 -0.376,1.608 -0.67,2.4 -3.169,8.54 -12.656,12.89 -21.196,9.724 -8.539,-3.169 -12.89,-12.656 -9.724,-21.194 0.296,-0.794 0.659,-1.54 1.06,-2.256 l -87.967,-32.638 c -6.334,-2.35 -9.562,-9.391 -7.215,-15.726 l 105.467,-284.258 c 2.348,-6.335 9.392,-9.566 15.724,-7.213 l 206.463,76.6 c 6.335,2.349 9.565,9.39 7.211,15.724 L 15.727,-7.215 C 13.373,-0.878 6.334,2.35 0,0"
             style="fill:#00395c;fill-opacity:1;fill-rule:nonzero;stroke:none"
             id="path305" /></g><g
           id="g307"
           transform="translate(1272.6699,731.6182)"><path
             d="m 0,0 -191.498,-71.05 98.064,-264.312 138.138,51.255 36.914,64.126 z"
             style="fill:#e8e8e8;fill-opacity:1;fill-rule:nonzero;stroke:none"
             id="path309" /></g><g
           id="g311"
           transform="translate(1317.3311,447.5342)"><path
             d="M 0,0 37.001,64.076 -16.388,44.353 Z"
             style="fill:#c1c1c1;fill-opacity:1;fill-rule:nonzero;stroke:none"
             id="path313" /></g><g
           id="g315"
           transform="translate(1122.8701,621.5728)"><path
             d="m 0,0 -12.965,-4.811 -4.809,12.966 12.964,4.81 z"
             style="fill:#ffbd35;fill-opacity:1;fill-rule:nonzero;stroke:none"
             id="path317" /></g><g
           id="g319"
           transform="translate(1132.8604,594.6421)"><path
             d="m 0,0 -12.964,-4.811 -4.809,12.969 12.964,4.81 z"
             style="fill:#c1c1c1;fill-opacity:1;fill-rule:nonzero;stroke:none"
             id="path321" /></g><g
           id="g323"
           transform="translate(1143.2227,566.7158)"><path
             d="m 0,0 -12.966,-4.81 -4.809,12.966 12.967,4.81 z"
             style="fill:#c1c1c1;fill-opacity:1;fill-rule:nonzero;stroke:none"
             id="path325" /></g><g
           id="g327"
           transform="translate(1154.6943,535.7959)"><path
             d="m 0,0 -12.966,-4.811 -4.809,12.966 12.967,4.811 z"
             style="fill:#c1c1c1;fill-opacity:1;fill-rule:nonzero;stroke:none"
             id="path329" /></g><g
           id="g331"
           transform="translate(1166.3516,504.377)"><path
             d="m 0,0 -12.969,-4.808 -4.807,12.966 12.967,4.811 z"
             style="fill:#c1c1c1;fill-opacity:1;fill-rule:nonzero;stroke:none"
             id="path333" /></g><g
           id="g335"
           transform="translate(1252.9619,673.6211)"><path
             d="m 0,0 -115.697,-42.927 -2.468,6.652 115.697,42.924 z"
             style="fill:#ffbd35;fill-opacity:1;fill-rule:nonzero;stroke:none"
             id="path337" /></g><g
           id="g339"
           transform="translate(1263.0156,646.5244)"><path
             d="m 0,0 -115.697,-42.925 -2.467,6.649 115.697,42.925 z"
             style="fill:#c1c1c1;fill-opacity:1;fill-rule:nonzero;stroke:none"
             id="path341" /></g><g
           id="g343"
           transform="translate(1273.376,618.5986)"><path
             d="m 0,0 -115.697,-42.927 -2.467,6.652 115.699,42.924 z"
             style="fill:#c1c1c1;fill-opacity:1;fill-rule:nonzero;stroke:none"
             id="path345" /></g><g
           id="g347"
           transform="translate(1284.8457,587.6787)"><path
             d="m 0,0 -115.694,-42.927 -2.471,6.651 115.7,42.925 z"
             style="fill:#c1c1c1;fill-opacity:1;fill-rule:nonzero;stroke:none"
             id="path349" /></g><g
           id="g351"
           transform="translate(1296.5039,556.2598)"><path
             d="m 0,0 -115.699,-42.925 -2.465,6.65 L -2.47,6.651 Z"
             style="fill:#c1c1c1;fill-opacity:1;fill-rule:nonzero;stroke:none"
             id="path353" /></g><g
           id="g355"
           transform="translate(1173.2656,724.8052)"><path
             d="m 0,0 c 1.464,-3.948 -0.549,-8.334 -4.496,-9.799 -3.947,-1.465 -8.333,0.548 -9.797,4.495 -1.465,3.948 0.545,8.335 4.493,9.798 C -5.852,5.958 -1.466,3.948 0,0"
             style="fill:#ff4818;fill-opacity:1;fill-rule:nonzero;stroke:none"
             id="path357" /></g></g></g></g></svg>
